<svg xmlns="http://www.w3.org/2000/svg" width="680" viewBox="0 0 680 524" role="img">
<title>Dashboard de estadisticas de repositorios publicos de EL-BID</title>
<desc>Muestra 83 repositorios publicos, 628 estrellas, 589 forks y descargas PyPI</desc>
<rect width="680" height="524" rx="8" fill="#FFFFFF" stroke="#D8E4ED" stroke-width="0.5"/>
<rect x="0" y="0" width="680" height="42" fill="#FFFFFF"/><line x1="0" y1="42" x2="680" y2="42" stroke="#0077C8" stroke-width="2"/><text x="20" y="26" font-family="system-ui,sans-serif" font-size="13" font-weight="500" fill="#003876" letter-spacing="0.3">Codigo para el Desarrollo · Open source</text><text x="660" y="26" font-family="system-ui,sans-serif" font-size="10" fill="#5A6E80" text-anchor="end">Actualizado 10 Apr 2026</text><rect x="0" y="44" width="680" height="26" fill="#EDF5FB"/><circle cx="16" cy="57" r="3" fill="#1B8A3A"/><text x="26" y="61" font-family="system-ui,sans-serif" font-size="10.5" fill="#5A6E80">Solo repositorios publicos de github.com/EL-BID</text><rect x="0" y="70" width="680" height="60" fill="#FAFCFD"/><text x="85" y="98" font-family="system-ui,sans-serif" font-size="22" font-weight="500" fill="#0077C8" text-anchor="middle">83</text><text x="85" y="114" font-family="system-ui,sans-serif" font-size="9" fill="#5A6E80" text-anchor="middle" letter-spacing="0.5" font-weight="500">REPOS PUBLICOS</text><line x1="170" y1="78" x2="170" y2="122" stroke="#D8E4ED" stroke-width="0.5"/><text x="255" y="98" font-family="system-ui,sans-serif" font-size="22" font-weight="500" fill="#D4960F" text-anchor="middle">628</text><text x="255" y="114" font-family="system-ui,sans-serif" font-size="9" fill="#5A6E80" text-anchor="middle" letter-spacing="0.5" font-weight="500">ESTRELLAS</text><line x1="340" y1="78" x2="340" y2="122" stroke="#D8E4ED" stroke-width="0.5"/><text x="425" y="98" font-family="system-ui,sans-serif" font-size="22" font-weight="500" fill="#00A19A" text-anchor="middle">589</text><text x="425" y="114" font-family="system-ui,sans-serif" font-size="9" fill="#5A6E80" text-anchor="middle" letter-spacing="0.5" font-weight="500">FORKS</text><line x1="510" y1="78" x2="510" y2="122" stroke="#D8E4ED" stroke-width="0.5"/><text x="595" y="98" font-family="system-ui,sans-serif" font-size="22" font-weight="500" fill="#1B8A3A" text-anchor="middle">196</text><text x="595" y="114" font-family="system-ui,sans-serif" font-size="9" fill="#5A6E80" text-anchor="middle" letter-spacing="0.5" font-weight="500">SEGUIDORES</text><line x1="0" y1="130" x2="680" y2="130" stroke="#D8E4ED" stroke-width="0.5"/><text x="20" y="150" font-family="system-ui,sans-serif" font-size="9.5" fill="#5A6E80" letter-spacing="0.6" font-weight="500">TOP 5 REPOS PUBLICOS POR ESTRELLAS</text><text x="118" y="172" font-family="system-ui,sans-serif" font-size="11" fill="#1A2B3C" text-anchor="end">urbanpy</text><rect x="126" y="161" width="498" height="16" rx="3" fill="#EDF5FB"/><rect x="126" y="161" width="498" height="16" rx="3" fill="#0077C8" opacity="1.00"/><text x="660" y="172" font-family="system-ui,sans-serif" font-size="10" fill="#5A6E80" text-anchor="end" font-weight="500">124</text><text x="118" y="194" font-family="system-ui,sans-serif" font-size="11" fill="#1A2B3C" text-anchor="end">Plantilla-de-..</text><rect x="126" y="183" width="498" height="16" rx="3" fill="#EDF5FB"/><rect x="126" y="183" width="249" height="16" rx="3" fill="#0077C8" opacity="0.70"/><text x="660" y="194" font-family="system-ui,sans-serif" font-size="10" fill="#5A6E80" text-anchor="end" font-weight="500">62</text><text x="118" y="216" font-family="system-ui,sans-serif" font-size="11" fill="#1A2B3C" text-anchor="end">URSA</text><rect x="126" y="205" width="498" height="16" rx="3" fill="#EDF5FB"/><rect x="126" y="205" width="154" height="16" rx="3" fill="#0077C8" opacity="0.59"/><text x="660" y="216" font-family="system-ui,sans-serif" font-size="10" fill="#5A6E80" text-anchor="end" font-weight="500">38</text><text x="118" y="238" font-family="system-ui,sans-serif" font-size="11" fill="#1A2B3C" text-anchor="end">IDB-IDB-Inves..</text><rect x="126" y="227" width="498" height="16" rx="3" fill="#EDF5FB"/><rect x="126" y="227" width="134" height="16" rx="3" fill="#0077C8" opacity="0.56"/><text x="660" y="238" font-family="system-ui,sans-serif" font-size="10" fill="#5A6E80" text-anchor="end" font-weight="500">34</text><text x="118" y="260" font-family="system-ui,sans-serif" font-size="11" fill="#1A2B3C" text-anchor="end">UrbanTrips</text><rect x="126" y="249" width="498" height="16" rx="3" fill="#EDF5FB"/><rect x="126" y="249" width="134" height="16" rx="3" fill="#0077C8" opacity="0.56"/><text x="660" y="260" font-family="system-ui,sans-serif" font-size="10" fill="#5A6E80" text-anchor="end" font-weight="500">33</text><line x1="20" y1="274" x2="660" y2="274" stroke="#D8E4ED" stroke-width="0.5"/><text x="20" y="298" font-family="system-ui,sans-serif" font-size="9.5" fill="#5A6E80" letter-spacing="0.6" font-weight="500">LENGUAJES EN REPOS PUBLICOS</text><rect x="20" y="308" width="154" height="7" fill="#3572A5" rx="0"/><rect x="20" y="308" width="154" height="7" fill="#3572A5" rx="3.5"/><rect x="24" y="308" width="150" height="7" fill="#3572A5"/><rect x="174" y="308" width="115" height="7" fill="#DA5B0B" rx="0"/><rect x="289" y="308" width="64" height="7" fill="#198CE7" rx="0"/><rect x="353" y="308" width="45" height="7" fill="#e34c26" rx="0"/><rect x="398" y="308" width="45" height="7" fill="#f1e05a" rx="0"/><rect x="443" y="308" width="211" height="7" fill="#8899AA" rx="0"/><rect x="20" y="322" width="7" height="7" rx="1.5" fill="#3572A5"/><text x="31" y="328" font-family="system-ui,sans-serif" font-size="10" fill="#5A6E80">Python 24%</text><rect x="102" y="322" width="7" height="7" rx="1.5" fill="#DA5B0B"/><text x="113" y="328" font-family="system-ui,sans-serif" font-size="10" fill="#5A6E80">Jupyter Notebook 18%</text><rect x="244" y="322" width="7" height="7" rx="1.5" fill="#198CE7"/><text x="255" y="328" font-family="system-ui,sans-serif" font-size="10" fill="#5A6E80">R 10%</text><rect x="296" y="322" width="7" height="7" rx="1.5" fill="#e34c26"/><text x="307" y="328" font-family="system-ui,sans-serif" font-size="10" fill="#5A6E80">HTML 7%</text><rect x="360" y="322" width="7" height="7" rx="1.5" fill="#f1e05a"/><text x="371" y="328" font-family="system-ui,sans-serif" font-size="10" fill="#5A6E80">JavaScript 7%</text><rect x="460" y="322" width="7" height="7" rx="1.5" fill="#8899AA"/><text x="471" y="328" font-family="system-ui,sans-serif" font-size="10" fill="#5A6E80">Otros 33%</text><line x1="20" y1="340" x2="660" y2="340" stroke="#D8E4ED" stroke-width="0.5"/><text x="20" y="364" font-family="system-ui,sans-serif" font-size="9.5" fill="#5A6E80" letter-spacing="0.6" font-weight="500">LIBRERIAS PYTHON EN PYPI · DESCARGAS MENSUALES</text><rect x="20" y="374" width="209" height="50" rx="6" fill="#EDF5FB"/><text x="124" y="391" font-family="monospace" font-size="10" font-weight="500" fill="#003876" text-anchor="middle">idbsocialdatapy</text><text x="124" y="407" font-family="system-ui,sans-serif" font-size="14" font-weight="500" fill="#1A2B3C" text-anchor="middle">191</text><text x="124" y="418" font-family="system-ui,sans-serif" font-size="8" fill="#5A6E80" text-anchor="middle" letter-spacing="0.3">DESCARGAS/MES</text><rect x="235" y="374" width="209" height="50" rx="6" fill="#EDF5FB"/><text x="339" y="391" font-family="monospace" font-size="10" font-weight="500" fill="#003876" text-anchor="middle">pavimentados</text><text x="339" y="407" font-family="system-ui,sans-serif" font-size="14" font-weight="500" fill="#1A2B3C" text-anchor="middle">173</text><text x="339" y="418" font-family="system-ui,sans-serif" font-size="8" fill="#5A6E80" text-anchor="middle" letter-spacing="0.3">DESCARGAS/MES</text><rect x="450" y="374" width="209" height="50" rx="6" fill="#EDF5FB"/><text x="554" y="391" font-family="monospace" font-size="10" font-weight="500" fill="#003876" text-anchor="middle">viasegura</text><text x="554" y="407" font-family="system-ui,sans-serif" font-size="14" font-weight="500" fill="#1A2B3C" text-anchor="middle">77</text><text x="554" y="418" font-family="system-ui,sans-serif" font-size="8" fill="#5A6E80" text-anchor="middle" letter-spacing="0.3">DESCARGAS/MES</text><rect x="20" y="430" width="209" height="50" rx="6" fill="#EDF5FB"/><text x="124" y="447" font-family="monospace" font-size="10" font-weight="500" fill="#003876" text-anchor="middle">urbantrips</text><text x="124" y="463" font-family="system-ui,sans-serif" font-size="14" font-weight="500" fill="#1A2B3C" text-anchor="middle">53</text><text x="124" y="474" font-family="system-ui,sans-serif" font-size="8" fill="#5A6E80" text-anchor="middle" letter-spacing="0.3">DESCARGAS/MES</text><rect x="235" y="430" width="209" height="50" rx="6" fill="#EDF5FB"/><text x="339" y="447" font-family="monospace" font-size="10" font-weight="500" fill="#003876" text-anchor="middle">urbanpy</text><text x="339" y="463" font-family="system-ui,sans-serif" font-size="14" font-weight="500" fill="#1A2B3C" text-anchor="middle">50</text><text x="339" y="474" font-family="system-ui,sans-serif" font-size="8" fill="#5A6E80" text-anchor="middle" letter-spacing="0.3">DESCARGAS/MES</text><line x1="0" y1="490" x2="680" y2="490" stroke="#D8E4ED" stroke-width="0.5"/><text x="340" y="508" font-family="system-ui,sans-serif" font-size="10" fill="#5A6E80" text-anchor="middle" opacity="0.6">Datos de repositorios publicos · Generado automaticamente via GitHub Actions</text>
</svg>