<svg xmlns="http://www.w3.org/2000/svg" width="680" viewBox="0 0 680 552" role="img">
<title>github.com/EL-BID en números</title>
<desc>Dashboard: 79 repos, 608 estrellas, 182,499 descargas PyPI</desc>
<rect width="680" height="552" rx="8" fill="#FFFFFF" stroke="#D8E4ED" stroke-width="0.5"/>
<rect x="0" y="0" width="680" height="46" fill="#FFFFFF"/><line x1="0" y1="46" x2="680" y2="46" stroke="#0077C8" stroke-width="2"/><text x="20" y="29" font-family="system-ui,sans-serif" font-size="14" font-weight="600" fill="#003876" letter-spacing="0.2">github.com/EL-BID en números</text><text x="660" y="29" font-family="system-ui,sans-serif" font-size="10" fill="#5A6E80" text-anchor="end">Actualizado 25 Apr 2026</text><rect x="0" y="48" width="680" height="24" fill="#EDF5FB"/><circle cx="16" cy="60" r="3" fill="#1B8A3A"/><text x="26" y="64" font-family="system-ui,sans-serif" font-size="10" fill="#5A6E80">Solo repositorios publicos · Datos historicos acumulados</text><rect x="0" y="72" width="680" height="58" fill="#FAFCFD"/><text x="340" y="84" font-family="system-ui,sans-serif" font-size="8" fill="#5A6E80" text-anchor="middle" letter-spacing="0.8" font-weight="500">GITHUB</text><text x="68" y="106" font-family="system-ui,sans-serif" font-size="20" font-weight="500" fill="#0077C8" text-anchor="middle">79</text><text x="68" y="120" font-family="system-ui,sans-serif" font-size="8.5" fill="#5A6E80" text-anchor="middle" letter-spacing="0.4" font-weight="500">REPOS</text><line x1="136" y1="88" x2="136" y2="124" stroke="#D8E4ED" stroke-width="0.5"/><text x="204" y="106" font-family="system-ui,sans-serif" font-size="20" font-weight="500" fill="#D4960F" text-anchor="middle">608</text><text x="204" y="120" font-family="system-ui,sans-serif" font-size="8.5" fill="#5A6E80" text-anchor="middle" letter-spacing="0.4" font-weight="500">ESTRELLAS</text><line x1="272" y1="88" x2="272" y2="124" stroke="#D8E4ED" stroke-width="0.5"/><text x="340" y="106" font-family="system-ui,sans-serif" font-size="20" font-weight="500" fill="#00A19A" text-anchor="middle">569</text><text x="340" y="120" font-family="system-ui,sans-serif" font-size="8.5" fill="#5A6E80" text-anchor="middle" letter-spacing="0.4" font-weight="500">FORKS</text><line x1="408" y1="88" x2="408" y2="124" stroke="#D8E4ED" stroke-width="0.5"/><text x="476" y="106" font-family="system-ui,sans-serif" font-size="20" font-weight="500" fill="#1B8A3A" text-anchor="middle">58.3K</text><text x="476" y="120" font-family="system-ui,sans-serif" font-size="8.5" fill="#5A6E80" text-anchor="middle" letter-spacing="0.4" font-weight="500">VISITAS</text><line x1="544" y1="88" x2="544" y2="124" stroke="#D8E4ED" stroke-width="0.5"/><text x="612" y="106" font-family="system-ui,sans-serif" font-size="20" font-weight="500" fill="#003876" text-anchor="middle">33.9K</text><text x="612" y="120" font-family="system-ui,sans-serif" font-size="8.5" fill="#5A6E80" text-anchor="middle" letter-spacing="0.4" font-weight="500">CLONES</text><rect x="0" y="130" width="680" height="50" fill="#FFFFFF"/><line x1="0" y1="130" x2="680" y2="130" stroke="#D8E4ED" stroke-width="0.5"/><text x="340" y="142" font-family="system-ui,sans-serif" font-size="8" fill="#5A6E80" text-anchor="middle" letter-spacing="0.8" font-weight="500">PYPI · DESCARGAS HISTORICAS (PIP INSTALL)</text><text x="340" y="164" font-family="system-ui,sans-serif" font-size="22" font-weight="500" fill="#E85D3A" text-anchor="middle">182,499</text><text x="340" y="176" font-family="system-ui,sans-serif" font-size="8.5" fill="#5A6E80" text-anchor="middle">descargas totales desde 2020</text><line x1="0" y1="180" x2="680" y2="180" stroke="#D8E4ED" stroke-width="0.5"/><text x="20" y="198" font-family="system-ui,sans-serif" font-size="9" fill="#5A6E80" letter-spacing="0.5" font-weight="500">TOP 5 REPOS PUBLICOS POR ESTRELLAS</text><text x="118" y="219" font-family="system-ui,sans-serif" font-size="11" fill="#1A2B3C" text-anchor="end">urbanpy</text><rect x="126" y="208" width="498" height="16" rx="3" fill="#EDF5FB"/><rect x="126" y="208" width="498" height="16" rx="3" fill="#0077C8" opacity="1.00"/><text x="660" y="219" font-family="system-ui,sans-serif" font-size="10" fill="#5A6E80" text-anchor="end" font-weight="500">124</text><text x="118" y="241" font-family="system-ui,sans-serif" font-size="11" fill="#1A2B3C" text-anchor="end">Plantilla-de-..</text><rect x="126" y="230" width="498" height="16" rx="3" fill="#EDF5FB"/><rect x="126" y="230" width="249" height="16" rx="3" fill="#0077C8" opacity="0.70"/><text x="660" y="241" font-family="system-ui,sans-serif" font-size="10" fill="#5A6E80" text-anchor="end" font-weight="500">62</text><text x="118" y="263" font-family="system-ui,sans-serif" font-size="11" fill="#1A2B3C" text-anchor="end">URSA</text><rect x="126" y="252" width="498" height="16" rx="3" fill="#EDF5FB"/><rect x="126" y="252" width="154" height="16" rx="3" fill="#0077C8" opacity="0.59"/><text x="660" y="263" font-family="system-ui,sans-serif" font-size="10" fill="#5A6E80" text-anchor="end" font-weight="500">38</text><text x="118" y="285" font-family="system-ui,sans-serif" font-size="11" fill="#1A2B3C" text-anchor="end">IDB-IDB-Inves..</text><rect x="126" y="274" width="498" height="16" rx="3" fill="#EDF5FB"/><rect x="126" y="274" width="134" height="16" rx="3" fill="#0077C8" opacity="0.56"/><text x="660" y="285" font-family="system-ui,sans-serif" font-size="10" fill="#5A6E80" text-anchor="end" font-weight="500">34</text><text x="118" y="307" font-family="system-ui,sans-serif" font-size="11" fill="#1A2B3C" text-anchor="end">UrbanTrips</text><rect x="126" y="296" width="498" height="16" rx="3" fill="#EDF5FB"/><rect x="126" y="296" width="134" height="16" rx="3" fill="#0077C8" opacity="0.56"/><text x="660" y="307" font-family="system-ui,sans-serif" font-size="10" fill="#5A6E80" text-anchor="end" font-weight="500">33</text><line x1="20" y1="320" x2="660" y2="320" stroke="#D8E4ED" stroke-width="0.5"/><text x="20" y="342" font-family="system-ui,sans-serif" font-size="9" fill="#5A6E80" letter-spacing="0.5" font-weight="500">LENGUAJES EN REPOS PUBLICOS</text><rect x="20" y="350" width="173" height="7" fill="#3572A5"/><rect x="193" y="350" width="102" height="7" fill="#DA5B0B"/><rect x="295" y="350" width="70" height="7" fill="#198CE7"/><rect x="365" y="350" width="51" height="7" fill="#e34c26"/><rect x="416" y="350" width="51" height="7" fill="#f1e05a"/><rect x="467" y="350" width="192" height="7" fill="#8899AA"/><rect x="20" y="363" width="7" height="7" rx="1.5" fill="#3572A5"/><text x="31" y="369" font-family="system-ui,sans-serif" font-size="10" fill="#5A6E80">Python 27%</text><rect x="102" y="363" width="7" height="7" rx="1.5" fill="#DA5B0B"/><text x="113" y="369" font-family="system-ui,sans-serif" font-size="10" fill="#5A6E80">Jupyter Notebook 16%</text><rect x="244" y="363" width="7" height="7" rx="1.5" fill="#198CE7"/><text x="255" y="369" font-family="system-ui,sans-serif" font-size="10" fill="#5A6E80">R 11%</text><rect x="296" y="363" width="7" height="7" rx="1.5" fill="#e34c26"/><text x="307" y="369" font-family="system-ui,sans-serif" font-size="10" fill="#5A6E80">HTML 8%</text><rect x="360" y="363" width="7" height="7" rx="1.5" fill="#f1e05a"/><text x="371" y="369" font-family="system-ui,sans-serif" font-size="10" fill="#5A6E80">JavaScript 8%</text><rect x="460" y="363" width="7" height="7" rx="1.5" fill="#8899AA"/><text x="471" y="369" font-family="system-ui,sans-serif" font-size="10" fill="#5A6E80">Otros 30%</text><line x1="20" y1="379" x2="660" y2="379" stroke="#D8E4ED" stroke-width="0.5"/><text x="20" y="401" font-family="system-ui,sans-serif" font-size="9" fill="#5A6E80" letter-spacing="0.5" font-weight="500">DESCARGAS POR LIBRERIA (TOTAL HISTORICO)</text><rect x="20" y="409" width="209" height="48" rx="6" fill="#EDF5FB"/><text x="124" y="425" font-family="monospace" font-size="10" font-weight="500" fill="#003876" text-anchor="middle">pavimentados</text><text x="124" y="441" font-family="system-ui,sans-serif" font-size="14" font-weight="500" fill="#1A2B3C" text-anchor="middle">71.2K</text><text x="124" y="452" font-family="system-ui,sans-serif" font-size="7.5" fill="#5A6E80" text-anchor="middle" letter-spacing="0.3">DESCARGAS</text><rect x="235" y="409" width="209" height="48" rx="6" fill="#EDF5FB"/><text x="339" y="425" font-family="monospace" font-size="10" font-weight="500" fill="#003876" text-anchor="middle">babelgrid</text><text x="339" y="441" font-family="system-ui,sans-serif" font-size="14" font-weight="500" fill="#1A2B3C" text-anchor="middle">40.2K</text><text x="339" y="452" font-family="system-ui,sans-serif" font-size="7.5" fill="#5A6E80" text-anchor="middle" letter-spacing="0.3">DESCARGAS</text><rect x="450" y="409" width="209" height="48" rx="6" fill="#EDF5FB"/><text x="554" y="425" font-family="monospace" font-size="10" font-weight="500" fill="#003876" text-anchor="middle">viasegura</text><text x="554" y="441" font-family="system-ui,sans-serif" font-size="14" font-weight="500" fill="#1A2B3C" text-anchor="middle">38.3K</text><text x="554" y="452" font-family="system-ui,sans-serif" font-size="7.5" fill="#5A6E80" text-anchor="middle" letter-spacing="0.3">DESCARGAS</text><rect x="20" y="463" width="209" height="48" rx="6" fill="#EDF5FB"/><text x="124" y="479" font-family="monospace" font-size="10" font-weight="500" fill="#003876" text-anchor="middle">urbanpy</text><text x="124" y="495" font-family="system-ui,sans-serif" font-size="14" font-weight="500" fill="#1A2B3C" text-anchor="middle">17.4K</text><text x="124" y="506" font-family="system-ui,sans-serif" font-size="7.5" fill="#5A6E80" text-anchor="middle" letter-spacing="0.3">DESCARGAS</text><rect x="235" y="463" width="209" height="48" rx="6" fill="#EDF5FB"/><text x="339" y="479" font-family="monospace" font-size="10" font-weight="500" fill="#003876" text-anchor="middle">urbantrips</text><text x="339" y="495" font-family="system-ui,sans-serif" font-size="14" font-weight="500" fill="#1A2B3C" text-anchor="middle">11.7K</text><text x="339" y="506" font-family="system-ui,sans-serif" font-size="7.5" fill="#5A6E80" text-anchor="middle" letter-spacing="0.3">DESCARGAS</text><rect x="450" y="463" width="209" height="48" rx="6" fill="#EDF5FB"/><text x="554" y="479" font-family="monospace" font-size="10" font-weight="500" fill="#003876" text-anchor="middle">idbsocialdatapy</text><text x="554" y="495" font-family="system-ui,sans-serif" font-size="14" font-weight="500" fill="#1A2B3C" text-anchor="middle">3.8K</text><text x="554" y="506" font-family="system-ui,sans-serif" font-size="7.5" fill="#5A6E80" text-anchor="middle" letter-spacing="0.3">DESCARGAS</text><line x1="0" y1="521" x2="680" y2="521" stroke="#D8E4ED" stroke-width="0.5"/><text x="340" y="537" font-family="system-ui,sans-serif" font-size="9.5" fill="#5A6E80" text-anchor="middle" opacity="0.55">Datos de repositorios publicos · Generado automaticamente via GitHub Actions</text>
</svg>